<svg xmlns="http://www.w3.org/2000/svg" width="150" height="150" viewBox="0 0 150 150" fill="none">
<path d="M137.5 104.625V29.1875C137.5 21.6875 131.375 16.125 123.937 16.75H123.563C110.438 17.875 90.5 24.5625 79.375 31.5625L78.3125 32.25C76.5 33.375 73.5 33.375 71.6875 32.25L70.125 31.3125C59 24.375 39.125 17.75 26 16.6875C18.5625 16.0625 12.5 21.6875 12.5 29.125V104.625C12.5 110.625 17.375 116.25 23.375 117L25.1875 117.25C38.75 119.063 59.6875 125.938 71.6875 132.5L71.9375 132.625C73.625 133.563 76.3125 133.563 77.9375 132.625C89.9375 126 110.938 119.063 124.563 117.25L126.625 117C132.625 116.25 137.5 110.625 137.5 104.625Z" stroke="#01497C" stroke-width="1.5" stroke-linecap="round" stroke-linejoin="round"/>
<path d="M75 34.3125V128.062" stroke="#01497C" stroke-width="1.5" stroke-linecap="round" stroke-linejoin="round"/>
<path d="M48.4375 53.0625H34.375" stroke="#01497C" stroke-width="1.5" stroke-linecap="round" stroke-linejoin="round"/>
<path d="M53.125 71.8125H34.375" stroke="#01497C" stroke-width="1.5" stroke-linecap="round" stroke-linejoin="round"/>
</svg>