<svg xmlns="http://www.w3.org/2000/svg" width="150" height="150" viewBox="0 0 150 150" fill="none">
<path d="M57.25 67.9375C56.625 67.875 55.875 67.875 55.1875 67.9375C40.3125 67.4375 28.5 55.25 28.5 40.25C28.5 24.9375 40.875 12.5 56.25 12.5C71.5625 12.5 84 24.9375 84 40.25C83.9375 55.25 72.125 67.4375 57.25 67.9375Z" stroke="#01497C" stroke-width="1.5" stroke-linecap="round" stroke-linejoin="round"/>
<path d="M102.562 25C114.687 25 124.437 34.8125 124.437 46.875C124.437 58.6875 115.063 68.3125 103.375 68.75C102.875 68.6875 102.312 68.6875 101.75 68.75" stroke="#01497C" stroke-width="1.5" stroke-linecap="round" stroke-linejoin="round"/>
<path d="M26 91C10.875 101.125 10.875 117.625 26 127.688C43.1875 139.188 71.375 139.188 88.5625 127.688C103.688 117.563 103.688 101.063 88.5625 91C71.4375 79.5625 43.25 79.5625 26 91Z" stroke="#01497C" stroke-width="1.5" stroke-linecap="round" stroke-linejoin="round"/>
<path d="M114.625 125C119.125 124.062 123.375 122.25 126.875 119.562C136.625 112.25 136.625 100.187 126.875 92.875C123.437 90.25 119.25 88.5 114.813 87.5" stroke="#01497C" stroke-width="1.5" stroke-linecap="round" stroke-linejoin="round"/>
</svg>